<svg width="112" height="28" viewBox="0 0 112 28" fill="none" xmlns="http://www.w3.org/2000/svg">
<path d="M11.9427 27.3717C11.8958 27.3844 11.8468 27.3844 11.7999 27.3717L1.14111 20.9754C1.08782 20.9427 1.04608 20.8928 1.0222 20.8333C0.998315 20.7736 0.993552 20.7076 1.00865 20.6449V7.76684C1.00909 7.7149 1.02248 7.66397 1.0475 7.61909C1.07252 7.57422 1.1083 7.53696 1.15131 7.51099L11.8102 1.03999C11.8535 1.01379 11.9028 1 11.9528 1C12.0029 1 12.0521 1.01379 12.0954 1.03999L22.7543 7.43636C22.7973 7.46234 22.8331 7.4996 22.8582 7.54447C22.8831 7.58934 22.8965 7.64027 22.897 7.69222V20.6449C22.8965 20.6968 22.8831 20.7478 22.8582 20.7926C22.8331 20.8375 22.7973 20.8748 22.7543 20.9007L12.0954 27.2971C12.0529 27.3375 11.9996 27.3635 11.9427 27.3717ZM1.56909 20.4743L11.9427 26.7427L22.3162 20.4743V7.93741L11.9427 1.67963L1.56909 7.93741V20.4743Z" fill="#21CDB0"/>
<path d="M4.61578 10.0804C4.56466 10.0688 4.51757 10.0427 4.47966 10.005C4.44174 9.96735 4.41445 9.91947 4.40078 9.86666C4.3871 9.81385 4.38757 9.75815 4.40212 9.7056C4.41669 9.65304 4.44477 9.60568 4.48331 9.56869L8.40654 7.19135C8.43869 7.16332 8.47632 7.14304 8.51678 7.13194C8.55731 7.12083 8.59961 7.11918 8.64079 7.12711C8.68189 7.13503 8.72089 7.15232 8.75497 7.17777C8.78898 7.20321 8.81734 7.23618 8.83781 7.27434C8.85836 7.31249 8.87061 7.35491 8.87367 7.39857C8.87681 7.44223 8.87069 7.48607 8.85578 7.52698C8.84087 7.56789 8.8175 7.60488 8.78745 7.6353C8.75731 7.66573 8.72121 7.68886 8.68164 7.70305L4.75845 10.0378C4.71532 10.0649 4.6661 10.0796 4.61578 10.0804Z" fill="#21CDB0"/>
<path d="M11.9426 19.3338C11.8959 19.3465 11.8467 19.3465 11.8 19.3338L7.80545 16.8713C7.74193 16.8246 7.69874 16.7535 7.68537 16.6735C7.67874 16.6339 7.67964 16.5933 7.688 16.5541C7.69636 16.5149 7.71204 16.4777 7.73412 16.4448C7.7562 16.4119 7.78425 16.3839 7.81669 16.3623C7.84912 16.3408 7.88529 16.3261 7.92314 16.3192C7.99958 16.3052 8.07819 16.3235 8.14169 16.3702L12.1362 18.7795C12.1894 18.8129 12.2307 18.8635 12.2539 18.9237C12.2771 18.9839 12.281 19.0503 12.2649 19.113C12.2487 19.1757 12.2135 19.2311 12.1645 19.2709C12.1156 19.3108 12.0556 19.3329 11.9935 19.3338H11.9426Z" fill="#21CDB0"/>
<path d="M11.9424 23.3527C11.8956 23.3652 11.8465 23.3652 11.7997 23.3527L7.82558 20.8687C7.79346 20.847 7.76575 20.8189 7.74402 20.786C7.72228 20.7531 7.70695 20.716 7.69891 20.6769C7.69087 20.6378 7.69026 20.5975 7.69714 20.5581C7.70401 20.5187 7.71822 20.4812 7.73897 20.4476C7.75971 20.414 7.78657 20.385 7.81802 20.3622C7.84948 20.3395 7.88491 20.3235 7.92228 20.3151C7.95966 20.3067 7.99825 20.306 8.03587 20.3133C8.07347 20.3204 8.10932 20.3353 8.14148 20.357L12.1157 22.7983C12.1644 22.8334 12.2016 22.8836 12.2219 22.9418C12.2422 23 12.2447 23.0634 12.2289 23.1231C12.2133 23.1829 12.1802 23.2361 12.1343 23.2753C12.0885 23.3145 12.0321 23.3378 11.9729 23.3419L11.9424 23.3527Z" fill="#21CDB0"/>
<path d="M7.94781 24.728C7.87214 24.728 7.79957 24.6965 7.74606 24.6406C7.69256 24.5845 7.66249 24.5087 7.66249 24.4295V11.9245C7.67497 11.8564 7.70978 11.7948 7.76093 11.7506C7.81208 11.7064 7.87636 11.6823 7.94272 11.6823C8.00908 11.6823 8.07337 11.7064 8.12453 11.7506C8.17562 11.7948 8.21043 11.8564 8.22292 11.9245V24.4401C8.22043 24.5157 8.19061 24.5873 8.13952 24.6407C8.08852 24.6942 8.01998 24.7253 7.94781 24.728Z" fill="#21CDB0"/>
<path d="M4.61598 22.9688C4.5403 22.9688 4.46773 22.9373 4.41422 22.8813C4.36071 22.8254 4.33066 22.7494 4.33066 22.6703V9.78161C4.34314 9.7134 4.37795 9.65192 4.42909 9.6077C4.48024 9.5634 4.54453 9.53924 4.61088 9.53924C4.67724 9.53924 4.74152 9.5634 4.79267 9.6077C4.84381 9.65192 4.87862 9.7134 4.8911 9.78161V22.6809C4.88857 22.7564 4.85878 22.8281 4.80771 22.8815C4.75665 22.9349 4.68814 22.9661 4.61598 22.9688Z" fill="#21CDB0"/>
<path d="M7.9479 12.2229C7.89377 12.2144 7.84311 12.1898 7.80199 12.152C7.76087 12.1142 7.731 12.0648 7.71597 12.0098C7.70092 11.9546 7.70135 11.8962 7.71717 11.8415C7.733 11.7866 7.76357 11.7377 7.80524 11.7005L11.7998 9.15268C11.8623 9.12606 11.9318 9.12351 11.9959 9.14536C12.06 9.1673 12.1147 9.21229 12.1501 9.27241C12.1856 9.33245 12.1995 9.4038 12.1895 9.47353C12.1794 9.54335 12.146 9.60721 12.0953 9.65373L8.14147 12.1803C8.08394 12.2182 8.01524 12.2333 7.9479 12.2229Z" fill="#21CDB0"/>
<path d="M4.61578 10.0804C4.56466 10.0688 4.51757 10.0427 4.47966 10.005C4.44174 9.96735 4.41445 9.91947 4.40078 9.86666C4.3871 9.81385 4.38757 9.75815 4.40212 9.7056C4.41669 9.65304 4.44477 9.60568 4.48331 9.56869L8.40654 7.19135C8.43869 7.16332 8.47632 7.14304 8.51678 7.13194C8.55731 7.12083 8.59961 7.11918 8.64079 7.12711C8.68189 7.13503 8.72089 7.15232 8.75497 7.17777C8.78898 7.20321 8.81734 7.23618 8.83781 7.27434C8.85836 7.31249 8.87061 7.35491 8.87367 7.39857C8.87681 7.44223 8.87069 7.48607 8.85578 7.52698C8.84087 7.56789 8.8175 7.60488 8.78745 7.6353C8.75731 7.66573 8.72121 7.68886 8.68164 7.70305L4.75845 10.0378C4.71532 10.0649 4.6661 10.0796 4.61578 10.0804Z" fill="#21CDB0"/>
<path d="M15.9369 12.0845C15.8901 12.0972 15.841 12.0972 15.7942 12.0845L5.33913 5.73084C5.28384 5.68668 5.24588 5.6229 5.23239 5.55151C5.21889 5.48013 5.23078 5.40604 5.26583 5.34318C5.30088 5.28032 5.35667 5.23302 5.42271 5.21018C5.48875 5.18733 5.5605 5.19051 5.62445 5.21913L16.0795 11.5409C16.1327 11.5743 16.174 11.6249 16.1972 11.6851C16.2204 11.7452 16.2242 11.8117 16.2081 11.8743C16.192 11.937 16.1568 11.9924 16.1079 12.0323C16.0589 12.0722 15.9988 12.0942 15.9369 12.0953V12.0845Z" fill="#21CDB0"/>
<path d="M19.2694 10.1015C19.2226 10.1141 19.1735 10.1141 19.1267 10.1015L8.45772 3.58782C8.40244 3.54366 8.36449 3.47989 8.35095 3.4085C8.33749 3.33711 8.34934 3.26303 8.38439 3.20017C8.41944 3.13731 8.47521 3.09001 8.54128 3.06716C8.60736 3.04432 8.67907 3.0475 8.74306 3.07611L19.4121 9.56844C19.4652 9.60186 19.5066 9.65246 19.5298 9.71267C19.553 9.77279 19.5568 9.83929 19.5407 9.90188C19.5246 9.96456 19.4893 10.02 19.4404 10.0599C19.3914 10.0998 19.3314 10.1218 19.2694 10.1228V10.1015Z" fill="#21CDB0"/>
<path d="M15.9473 16.9137C15.8716 16.9137 15.799 16.8823 15.7455 16.8263C15.692 16.7703 15.662 16.6944 15.662 16.6152V11.9245C15.6745 11.8564 15.7093 11.7948 15.7604 11.7506C15.8115 11.7064 15.8758 11.6823 15.9421 11.6823C16.0085 11.6823 16.0728 11.7064 16.1239 11.7506C16.1751 11.7948 16.2099 11.8564 16.2224 11.9245V16.6152C16.2225 16.6926 16.1938 16.7669 16.1425 16.8226C16.0911 16.8783 16.0212 16.911 15.9473 16.9137Z" fill="#21CDB0"/>
<path d="M19.2689 14.8989C19.1932 14.8989 19.1206 14.8675 19.0671 14.8115C19.0136 14.7556 18.9836 14.6796 18.9836 14.6004V9.80311C18.9961 9.735 19.0309 9.67351 19.082 9.62921C19.1332 9.58499 19.1974 9.56084 19.2638 9.56084C19.3302 9.56084 19.3945 9.58499 19.4456 9.62921C19.4968 9.67351 19.5316 9.735 19.544 9.80311V14.5578C19.5498 14.5995 19.5471 14.642 19.536 14.6826C19.5249 14.7232 19.5057 14.7607 19.4797 14.793C19.4538 14.8253 19.4215 14.8513 19.3852 14.8696C19.3488 14.8879 19.3092 14.8978 19.2689 14.8989Z" fill="#21CDB0"/>
<path d="M11.9426 19.3338C11.8806 19.3328 11.8207 19.3105 11.7717 19.2706C11.7228 19.2308 11.6876 19.1753 11.6715 19.1127C11.6553 19.05 11.6591 18.9835 11.6823 18.9234C11.7055 18.8632 11.7469 18.8126 11.8001 18.7792L22.2653 12.4574C22.3293 12.4289 22.401 12.4256 22.4671 12.4485C22.5331 12.4714 22.5889 12.5187 22.624 12.5815C22.659 12.6444 22.6708 12.7184 22.6574 12.7899C22.6439 12.8612 22.6059 12.925 22.5506 12.9691L12.0854 19.2909C12.0422 19.318 11.993 19.333 11.9426 19.3338Z" fill="#21CDB0"/>
<path d="M11.9424 23.3527C11.8804 23.3517 11.8207 23.3294 11.7717 23.2896C11.7228 23.2497 11.6876 23.1943 11.6715 23.1316C11.6553 23.0689 11.6591 23.0025 11.6823 22.9423C11.7055 22.8822 11.7469 22.8316 11.8001 22.7981L22.4691 16.4017C22.5331 16.3732 22.6048 16.3699 22.6708 16.3928C22.7368 16.4157 22.7927 16.463 22.8277 16.5258C22.8628 16.5886 22.8746 16.6627 22.8612 16.7341C22.8476 16.8055 22.8097 16.8693 22.7544 16.9134L12.0854 23.3098C12.0422 23.337 11.9928 23.3519 11.9424 23.3527Z" fill="#21CDB0"/>
<path d="M11.9426 19.3338C11.8959 19.3465 11.8467 19.3465 11.8 19.3338L7.80545 16.8713C7.74193 16.8246 7.69874 16.7535 7.68537 16.6735C7.67874 16.6339 7.67964 16.5933 7.688 16.5541C7.69636 16.5149 7.71204 16.4777 7.73412 16.4448C7.7562 16.4119 7.78425 16.3839 7.81669 16.3623C7.84912 16.3408 7.88529 16.3261 7.92314 16.3192C7.99958 16.3052 8.07819 16.3235 8.14169 16.3702L12.1362 18.7795C12.1894 18.8129 12.2307 18.8635 12.2539 18.9237C12.2771 18.9839 12.281 19.0503 12.2649 19.113C12.2487 19.1757 12.2135 19.2311 12.1645 19.2709C12.1156 19.3108 12.0556 19.3329 11.9935 19.3338H11.9426ZM11.9426 19.3338C11.8806 19.3328 11.8207 19.3105 11.7717 19.2706C11.7228 19.2308 11.6876 19.1753 11.6715 19.1127C11.6553 19.05 11.6591 18.9835 11.6823 18.9234C11.7055 18.8632 11.7469 18.8126 11.8001 18.7792L22.2653 12.4574C22.3293 12.4289 22.401 12.4256 22.4671 12.4485C22.5331 12.4714 22.5889 12.5187 22.624 12.5815C22.659 12.6444 22.6708 12.7184 22.6574 12.7899C22.6439 12.8612 22.6059 12.925 22.5506 12.9691L12.0854 19.2909C12.0422 19.318 11.993 19.333 11.9426 19.3338ZM11.9424 23.3527C11.8956 23.3652 11.8465 23.3652 11.7997 23.3527L7.82558 20.8687C7.79346 20.847 7.76575 20.8189 7.74402 20.786C7.72228 20.7531 7.70695 20.716 7.69891 20.6769C7.69087 20.6379 7.69026 20.5975 7.69714 20.5581C7.70401 20.5187 7.71822 20.4812 7.73897 20.4476C7.75971 20.414 7.78657 20.385 7.81802 20.3622C7.84948 20.3395 7.88491 20.3235 7.92228 20.3151C7.95966 20.3067 7.99825 20.306 8.03587 20.3133C8.07347 20.3204 8.10932 20.3353 8.14148 20.357L12.1157 22.7983C12.1644 22.8334 12.2016 22.8836 12.2219 22.9418C12.2422 23 12.2447 23.0634 12.2289 23.1231C12.2133 23.1829 12.1802 23.2361 12.1343 23.2753C12.0885 23.3145 12.0321 23.3378 11.9729 23.3419L11.9424 23.3527ZM11.9424 23.3527C11.8804 23.3517 11.8207 23.3294 11.7717 23.2896C11.7228 23.2497 11.6876 23.1943 11.6715 23.1316C11.6553 23.0689 11.6591 23.0025 11.6823 22.9423C11.7055 22.8822 11.7469 22.8316 11.8001 22.7981L22.4691 16.4017C22.5331 16.3732 22.6048 16.3699 22.6708 16.3928C22.7368 16.4157 22.7927 16.463 22.8277 16.5258C22.8628 16.5886 22.8746 16.6627 22.8612 16.7341C22.8476 16.8055 22.8097 16.8693 22.7544 16.9134L12.0854 23.3098C12.0422 23.337 11.9928 23.3519 11.9424 23.3527ZM11.9427 27.3717C11.8958 27.3844 11.8468 27.3844 11.7999 27.3717L1.14111 20.9754C1.08782 20.9427 1.04608 20.8928 1.0222 20.8333C0.998315 20.7736 0.993552 20.7076 1.00865 20.6449V7.76684C1.00909 7.7149 1.02248 7.66397 1.0475 7.61909C1.07252 7.57423 1.1083 7.53696 1.15131 7.51099L11.8102 1.03999C11.8535 1.01379 11.9028 1 11.9528 1C12.0029 1 12.0521 1.01379 12.0954 1.03999L22.7543 7.43636C22.7973 7.46234 22.8331 7.4996 22.8582 7.54447C22.8831 7.58934 22.8965 7.64027 22.897 7.69222V20.6449C22.8965 20.6968 22.8831 20.7478 22.8582 20.7926C22.8331 20.8375 22.7973 20.8747 22.7543 20.9007L12.0954 27.2971C12.0529 27.3375 11.9996 27.3635 11.9427 27.3717ZM1.56909 20.4743L11.9427 26.7427L22.3162 20.4743V7.93741L11.9427 1.67963L1.56909 7.93741V20.4743ZM4.61578 10.0804C4.56466 10.0688 4.51757 10.0427 4.47966 10.005C4.44174 9.96735 4.41445 9.91947 4.40078 9.86666C4.3871 9.81385 4.38757 9.75815 4.40212 9.7056C4.41669 9.65304 4.44477 9.60568 4.48331 9.56869L8.40654 7.19135C8.43869 7.16332 8.47632 7.14304 8.51678 7.13194C8.55731 7.12083 8.59961 7.11918 8.64079 7.12711C8.68189 7.13502 8.72089 7.15232 8.75497 7.17777C8.78898 7.20321 8.81734 7.23618 8.83781 7.27434C8.85836 7.31249 8.87061 7.35491 8.87367 7.39857C8.87681 7.44223 8.87069 7.48607 8.85578 7.52698C8.84087 7.56789 8.8175 7.60488 8.78745 7.6353C8.75731 7.66573 8.72121 7.68886 8.68164 7.70305L4.75845 10.0378C4.71532 10.0649 4.6661 10.0796 4.61578 10.0804ZM7.94781 24.728C7.87214 24.728 7.79957 24.6965 7.74606 24.6406C7.69256 24.5845 7.66249 24.5087 7.66249 24.4295V11.9245C7.67497 11.8564 7.70978 11.7948 7.76093 11.7506C7.81208 11.7064 7.87636 11.6823 7.94272 11.6823C8.00908 11.6823 8.07337 11.7064 8.12453 11.7506C8.17562 11.7948 8.21043 11.8564 8.22292 11.9245V24.4401C8.22043 24.5157 8.19061 24.5873 8.13952 24.6407C8.08852 24.6942 8.01998 24.7253 7.94781 24.728ZM4.61598 22.9688C4.5403 22.9688 4.46773 22.9373 4.41422 22.8813C4.36071 22.8254 4.33066 22.7494 4.33066 22.6703V9.78161C4.34314 9.71341 4.37795 9.65192 4.42909 9.6077C4.48024 9.5634 4.54453 9.53924 4.61088 9.53924C4.67724 9.53924 4.74152 9.5634 4.79267 9.6077C4.84381 9.65192 4.87862 9.71341 4.8911 9.78161V22.6809C4.88857 22.7564 4.85878 22.8281 4.80771 22.8815C4.75666 22.9349 4.68814 22.9661 4.61598 22.9688ZM7.9479 12.2229C7.89377 12.2144 7.84311 12.1898 7.80199 12.152C7.76087 12.1142 7.731 12.0648 7.71597 12.0098C7.70092 11.9546 7.70135 11.8962 7.71717 11.8415C7.733 11.7866 7.76357 11.7377 7.80524 11.7005L11.7998 9.15268C11.8623 9.12606 11.9318 9.12351 11.9959 9.14536C12.06 9.1673 12.1147 9.21229 12.1501 9.27241C12.1856 9.33245 12.1995 9.4038 12.1895 9.47353C12.1794 9.54335 12.146 9.60721 12.0953 9.65373L8.14147 12.1803C8.08394 12.2182 8.01524 12.2333 7.9479 12.2229ZM15.9369 12.0845C15.8901 12.0972 15.841 12.0972 15.7942 12.0845L5.33913 5.73084C5.28384 5.68668 5.24588 5.6229 5.23239 5.55151C5.21889 5.48013 5.23078 5.40604 5.26583 5.34318C5.30088 5.28032 5.35667 5.23302 5.42271 5.21018C5.48875 5.18733 5.5605 5.19051 5.62445 5.21913L16.0795 11.5409C16.1327 11.5743 16.174 11.6249 16.1972 11.6851C16.2204 11.7452 16.2242 11.8117 16.2081 11.8743C16.192 11.937 16.1568 11.9924 16.1079 12.0323C16.0589 12.0722 15.9988 12.0942 15.9369 12.0953V12.0845ZM19.2694 10.1015C19.2226 10.1141 19.1735 10.1141 19.1267 10.1015L8.45772 3.58782C8.40244 3.54366 8.36449 3.47989 8.35095 3.4085C8.33749 3.33711 8.34934 3.26303 8.38439 3.20017C8.41944 3.13731 8.47521 3.09001 8.54128 3.06716C8.60736 3.04432 8.67907 3.0475 8.74306 3.07611L19.4121 9.56844C19.4652 9.60186 19.5066 9.65246 19.5298 9.71267C19.553 9.77279 19.5568 9.83929 19.5407 9.90188C19.5246 9.96456 19.4893 10.02 19.4404 10.0599C19.3914 10.0998 19.3314 10.1218 19.2694 10.1228V10.1015ZM15.9473 16.9137C15.8716 16.9137 15.799 16.8823 15.7455 16.8263C15.692 16.7703 15.662 16.6944 15.662 16.6152V11.9245C15.6745 11.8564 15.7093 11.7948 15.7604 11.7506C15.8115 11.7064 15.8758 11.6823 15.9421 11.6823C16.0085 11.6823 16.0728 11.7064 16.1239 11.7506C16.1751 11.7948 16.2099 11.8564 16.2224 11.9245V16.6152C16.2225 16.6926 16.1938 16.7669 16.1425 16.8226C16.0911 16.8783 16.0212 16.911 15.9473 16.9137ZM19.2689 14.8989C19.1932 14.8989 19.1206 14.8675 19.0671 14.8115C19.0136 14.7556 18.9836 14.6796 18.9836 14.6004V9.80311C18.9961 9.735 19.0309 9.67351 19.082 9.62921C19.1332 9.58499 19.1974 9.56084 19.2638 9.56084C19.3302 9.56084 19.3945 9.58499 19.4456 9.62921C19.4968 9.67351 19.5316 9.735 19.544 9.80311V14.5578C19.5498 14.5995 19.5471 14.642 19.536 14.6826C19.5249 14.7232 19.5057 14.7607 19.4797 14.793C19.4538 14.8253 19.4215 14.8513 19.3852 14.8696C19.3488 14.8879 19.3092 14.8978 19.2689 14.8989Z" stroke="#21CDB0"/>
<path d="M45.2301 14.5786C45.3319 16.9272 44.549 19.2238 43.0494 20.9749C42.3016 21.7918 41.3957 22.4322 40.3923 22.8532C39.3888 23.2743 38.311 23.4662 37.2308 23.4162C36.1449 23.473 35.0598 23.2854 34.049 22.8662C33.0383 22.4468 32.1252 21.8056 31.3716 20.9856C29.8766 19.2323 29.0976 16.9362 29.201 14.5892C29.0992 12.2406 29.8822 9.94391 31.3817 8.19283C32.1299 7.37648 33.0359 6.73646 34.0393 6.31548C35.0426 5.8945 36.1203 5.70225 37.2003 5.75155C38.2804 5.69867 39.3589 5.88714 40.3639 6.30441C41.369 6.72168 42.2775 7.35818 43.029 8.17151C44.5366 9.92316 45.3269 12.2237 45.2301 14.5786ZM34.3267 10.7727C33.5628 11.8872 33.1854 13.2411 33.2567 14.6105C33.1845 15.98 33.5621 17.3342 34.3267 18.4484C34.6825 18.8921 35.1269 19.2488 35.6286 19.4937C36.1303 19.7385 36.6773 19.8654 37.2308 19.8654C37.7844 19.8654 38.3313 19.7385 38.8331 19.4937C39.3348 19.2488 39.7792 18.8921 40.1351 18.4484C40.8989 17.3338 41.2764 15.9799 41.205 14.6105C41.2764 13.2411 40.8989 11.8872 40.1351 10.7727C39.7792 10.329 39.3348 9.97214 38.8331 9.72731C38.3313 9.48257 37.7844 9.35569 37.2308 9.35569C36.6773 9.35569 36.1303 9.48257 35.6286 9.72731C35.1269 9.97214 34.6825 10.329 34.3267 10.7727Z" fill="#00447F"/>
<path d="M51.2323 28.0001H47.676V10.2822H51.2425V12.2757C51.6233 11.6021 52.1708 11.0486 52.8272 10.6733C53.4836 10.2982 54.2245 10.1151 54.9721 10.1436C55.6986 10.1156 56.4218 10.2603 57.0872 10.5668C57.7525 10.8733 58.3429 11.3337 58.8137 11.9132C59.8377 13.2791 60.352 14.9879 60.2607 16.7211C60.3328 18.4302 59.8477 20.1142 58.8851 21.4971C58.4284 22.1151 57.8363 22.6091 57.1588 22.9375C56.4814 23.2658 55.7383 23.419 54.9925 23.384C54.2496 23.4283 53.5093 23.2589 52.8518 22.8944C52.1944 22.5298 51.6449 21.9839 51.2629 21.3159L51.2323 28.0001ZM51.2323 16.6145C51.1792 17.5792 51.4575 18.5321 52.0169 19.301C52.2578 19.6227 52.568 19.8802 52.9223 20.0526C53.2764 20.2249 53.6646 20.307 54.055 20.2924C54.4179 20.2895 54.7753 20.1985 55.0989 20.0264C55.4225 19.8544 55.7035 19.6061 55.9197 19.301C56.4414 18.5716 56.7011 17.6734 56.6534 16.7638C56.7178 15.8109 56.4539 14.8655 55.9096 14.0987C55.6798 13.8073 55.3898 13.5745 55.0615 13.4175C54.7332 13.2605 54.3751 13.1835 54.0142 13.1925C53.6464 13.1909 53.2825 13.2698 52.9455 13.424C52.6086 13.5781 52.3061 13.8043 52.0577 14.0879C51.7662 14.4304 51.5431 14.8302 51.4014 15.2641C51.2596 15.698 51.2022 16.1571 51.2323 16.6145Z" fill="#00447F"/>
<path d="M69.8089 22.9472C69.0307 23.2493 68.2029 23.387 67.3735 23.3522C64.5611 23.3522 63.1548 21.881 63.1548 18.9388V13.0221H61.3613V10.2823H63.1446V7.22273H66.7111V10.2823H69.5847V13.0114H66.7111V18.9601C66.6949 19.1559 66.7204 19.353 66.7856 19.5373C66.8508 19.7215 66.9541 19.8885 67.0882 20.0262C67.3591 20.2619 67.7042 20.3835 68.0563 20.3673C68.6691 20.378 69.2715 20.2 69.7885 19.8556L69.8089 22.9472Z" fill="#00447F"/>
<path d="M75.3728 5.00506C75.5641 5.20126 75.7166 5.43502 75.8215 5.69294C75.9264 5.95087 75.9816 6.22791 75.9841 6.50821C75.9857 6.79389 75.9324 7.077 75.8274 7.3407C75.7224 7.60442 75.5678 7.84336 75.3728 8.04333C75.1828 8.24805 74.9554 8.41079 74.7043 8.52192C74.4531 8.63307 74.1831 8.6903 73.9105 8.6903C73.6377 8.6903 73.3678 8.63307 73.1166 8.52192C72.8654 8.41079 72.6381 8.24805 72.4482 8.04333C72.2532 7.84336 72.0985 7.60442 71.9935 7.3407C71.8884 7.077 71.8352 6.79389 71.8368 6.50821C71.8188 6.07155 71.9296 5.63967 72.154 5.27106C72.3785 4.90244 72.7059 4.6149 73.0918 4.44738C73.4776 4.27986 73.9034 4.24044 74.3114 4.33447C74.7193 4.4285 75.0899 4.65143 75.3728 4.97308V5.00506ZM75.6886 23.2347H72.1323V10.2821H75.6988L75.6886 23.2347Z" fill="#00447F"/>
<path d="M87.9879 22.6166C86.9177 23.1914 85.726 23.4739 84.5229 23.4374C83.6792 23.4663 82.8379 23.317 82.0498 22.9983C81.2618 22.6796 80.5437 22.198 79.9377 21.5825C79.3367 20.9587 78.866 20.2112 78.5555 19.3872C78.245 18.5633 78.1015 17.6809 78.134 16.7959C78.1098 15.0078 78.7575 13.2814 79.9377 11.9879C80.5693 11.3393 81.323 10.8356 82.1514 10.5089C82.9797 10.1822 83.8637 10.0397 84.7477 10.0903C85.8645 10.0431 86.9758 10.277 87.9879 10.7726V13.9708C87.1232 13.4081 86.1224 13.1159 85.1039 13.1286C84.6631 13.1087 84.2223 13.1803 83.8081 13.3395C83.3931 13.4987 83.0128 13.7422 82.6889 14.0561C82.3641 14.4147 82.1127 14.8388 81.9499 15.3025C81.7863 15.7662 81.7154 16.2599 81.7412 16.7532C81.7573 17.7391 82.1199 18.6841 82.7606 19.4077C83.0619 19.7246 83.4237 19.9717 83.8218 20.1333C84.2199 20.2948 84.647 20.3673 85.0732 20.3459C86.1192 20.3404 87.1426 20.0304 88.029 19.4503L87.9879 22.6166Z" fill="#00447F"/>
<path d="M93.7454 23.2349H90.1789V5.61287H93.7454V16.1029L97.6068 10.2822H101.683L97.3933 16.4867L101.765 23.2242H97.689L93.7349 16.8279L93.7454 23.2349Z" fill="#00447F"/>
<path d="M111.995 19.3009C112.024 19.8695 111.919 20.4367 111.69 20.9532C111.46 21.4697 111.115 21.9199 110.681 22.2645C109.664 23.0139 108.439 23.3888 107.196 23.3306C105.901 23.3766 104.614 23.1065 103.436 22.5417V19.2262C104.472 20.0161 105.721 20.4449 107.003 20.4522C107.9 20.4522 108.348 20.1538 108.348 19.5567C108.348 19.4018 108.306 19.2501 108.225 19.1197C108.117 18.9593 107.974 18.8279 107.808 18.7359C107.633 18.6269 107.452 18.5272 107.268 18.4374L106.564 18.1176L105.862 17.7871C105.14 17.512 104.517 17.0117 104.075 16.3539C103.634 15.6962 103.397 14.9126 103.395 14.1091C103.369 13.5421 103.479 12.9773 103.714 12.4655C103.949 11.9537 104.302 11.5111 104.741 11.1775C105.742 10.4466 106.943 10.0727 108.165 10.1114C109.244 10.0772 110.319 10.2581 111.333 10.6445V13.8426C110.402 13.2938 109.345 13.0211 108.277 13.0537C107.918 13.0209 107.559 13.1148 107.257 13.3202C107.153 13.3951 107.068 13.4953 107.01 13.6123C106.951 13.7294 106.92 13.8597 106.921 13.9919C106.92 14.1469 106.963 14.2988 107.044 14.429C107.149 14.5885 107.288 14.72 107.451 14.8128L107.991 15.1326C108.161 15.225 108.395 15.3387 108.694 15.4737C109 15.6123 109.234 15.7296 109.418 15.8362C110.096 16.1906 110.707 16.671 111.221 17.254C111.719 17.8082 111.996 18.5403 111.995 19.3009Z" fill="#00447F"/>
</svg>
