<svg width="24" height="24" viewBox="0 0 24 24" fill="none" xmlns="http://www.w3.org/2000/svg">
<g clip-path="url(#clip0_606_742)">
<mask id="path-1-outside-1_606_742" maskUnits="userSpaceOnUse" x="-0.76709" y="-0.766968" width="25" height="25" fill="black">
<rect fill="white" x="-0.76709" y="-0.766968" width="25" height="25"/>
<path d="M22.1179 6.42984C21.8996 6.0388 21.2906 6.39036 21.5201 6.77482C22.5385 8.53948 23.0768 10.5555 23.0768 12.605C23.0768 15.2212 22.1937 17.7694 20.5831 19.82L19.9262 19.2687C19.9257 19.2683 19.9253 19.2678 19.9248 19.2674L18.0798 17.7194L16.4734 16.3714C17.2777 15.2868 17.7172 13.9623 17.7172 12.605C17.7172 10.9208 17.0626 9.33609 15.874 8.14297C14.7668 7.03169 13.3184 6.38231 11.7643 6.29338V0.928912C15.2605 1.0369 18.4775 2.67351 20.6333 5.45448C20.9026 5.81248 21.4582 5.38137 21.1787 5.03169C20.0492 3.57461 18.584 2.36824 16.9413 1.5431C15.2185 0.677652 13.3608 0.236925 11.4198 0.233106C11.2342 0.229057 11.0703 0.392576 11.074 0.578179V1.44799C8.21267 1.52823 5.53444 2.67991 3.50209 4.7123C1.39392 6.82042 0.23291 9.62347 0.23291 12.605C0.23291 14.5648 0.747898 16.4922 1.7222 18.1789C1.7222 18.1789 1.72234 18.1792 1.72239 18.1793C2.30174 19.1826 3.03118 20.0872 3.89055 20.8681C4.03153 20.9962 4.24984 20.9858 4.37803 20.8447C4.50617 20.7037 4.49577 20.4855 4.3547 20.3573C3.63368 19.7021 3.01002 18.954 2.49756 18.1302L5.14897 16.5994L6.09516 16.0531C7.39006 18.058 9.80097 19.1869 12.1793 18.879L12.9007 22.9694C12.4037 23.0408 11.8987 23.0769 11.3949 23.0769C9.31433 23.0769 7.30434 22.4683 5.58215 21.3169C5.42383 21.2111 5.20943 21.2536 5.10351 21.412C4.9976 21.5705 5.04015 21.7848 5.19861 21.8907C7.03464 23.1182 9.17731 23.767 11.3949 23.767C12.0545 23.767 12.7162 23.7089 13.3617 23.5942C13.3619 23.5942 13.3621 23.5942 13.3624 23.5941C15.8247 23.156 18.0767 21.8894 19.7415 20.0147L20.4084 20.5743C20.5486 20.6965 20.7789 20.6759 20.8951 20.5311C22.747 18.3129 23.7669 15.498 23.7669 12.6049C23.7669 10.4346 23.1967 8.29922 22.1179 6.42984ZM13.5801 22.8486L12.8586 18.7569C13.3382 18.6432 13.8027 18.4735 14.2436 18.2507C14.6463 18.0545 14.3288 17.4268 13.9322 17.6347C9.52363 19.9364 4.37876 15.4438 6.07022 10.7647C6.22261 10.3437 5.55795 10.1141 5.4179 10.5394C5.18881 11.2023 5.07264 11.8974 5.07264 12.605C5.07264 13.5978 5.30609 14.5761 5.75036 15.4552L3.75326 16.6083L2.15239 17.5325C1.34708 16.0241 0.923012 14.3281 0.923012 12.605C0.923012 6.93834 5.44785 2.30847 11.074 2.13805V6.29103C9.13802 6.38972 7.34101 7.37686 6.2187 8.974C5.95584 9.33674 6.53156 9.74089 6.78337 9.37083C7.83843 7.86939 9.56237 6.97303 11.3949 6.97303H11.4177C14.5107 6.98532 17.027 9.51185 17.027 12.6051C17.027 13.9166 16.5664 15.1936 15.7301 16.2008C15.5623 16.403 15.3787 16.5951 15.1843 16.772C14.8486 17.0686 15.3222 17.5885 15.6488 17.2824C15.7815 17.1617 15.9097 17.0345 16.0322 16.9024L19.2131 19.5715C17.7293 21.2362 15.7509 22.3871 13.5801 22.8486Z"/>
</mask>
<path d="M22.1179 6.42984C21.8996 6.0388 21.2906 6.39036 21.5201 6.77482C22.5385 8.53948 23.0768 10.5555 23.0768 12.605C23.0768 15.2212 22.1937 17.7694 20.5831 19.82L19.9262 19.2687C19.9257 19.2683 19.9253 19.2678 19.9248 19.2674L18.0798 17.7194L16.4734 16.3714C17.2777 15.2868 17.7172 13.9623 17.7172 12.605C17.7172 10.9208 17.0626 9.33609 15.874 8.14297C14.7668 7.03169 13.3184 6.38231 11.7643 6.29338V0.928912C15.2605 1.0369 18.4775 2.67351 20.6333 5.45448C20.9026 5.81248 21.4582 5.38137 21.1787 5.03169C20.0492 3.57461 18.584 2.36824 16.9413 1.5431C15.2185 0.677652 13.3608 0.236925 11.4198 0.233106C11.2342 0.229057 11.0703 0.392576 11.074 0.578179V1.44799C8.21267 1.52823 5.53444 2.67991 3.50209 4.7123C1.39392 6.82042 0.23291 9.62347 0.23291 12.605C0.23291 14.5648 0.747898 16.4922 1.7222 18.1789C1.7222 18.1789 1.72234 18.1792 1.72239 18.1793C2.30174 19.1826 3.03118 20.0872 3.89055 20.8681C4.03153 20.9962 4.24984 20.9858 4.37803 20.8447C4.50617 20.7037 4.49577 20.4855 4.3547 20.3573C3.63368 19.7021 3.01002 18.954 2.49756 18.1302L5.14897 16.5994L6.09516 16.0531C7.39006 18.058 9.80097 19.1869 12.1793 18.879L12.9007 22.9694C12.4037 23.0408 11.8987 23.0769 11.3949 23.0769C9.31433 23.0769 7.30434 22.4683 5.58215 21.3169C5.42383 21.2111 5.20943 21.2536 5.10351 21.412C4.9976 21.5705 5.04015 21.7848 5.19861 21.8907C7.03464 23.1182 9.17731 23.767 11.3949 23.767C12.0545 23.767 12.7162 23.7089 13.3617 23.5942C13.3619 23.5942 13.3621 23.5942 13.3624 23.5941C15.8247 23.156 18.0767 21.8894 19.7415 20.0147L20.4084 20.5743C20.5486 20.6965 20.7789 20.6759 20.8951 20.5311C22.747 18.3129 23.7669 15.498 23.7669 12.6049C23.7669 10.4346 23.1967 8.29922 22.1179 6.42984ZM13.5801 22.8486L12.8586 18.7569C13.3382 18.6432 13.8027 18.4735 14.2436 18.2507C14.6463 18.0545 14.3288 17.4268 13.9322 17.6347C9.52363 19.9364 4.37876 15.4438 6.07022 10.7647C6.22261 10.3437 5.55795 10.1141 5.4179 10.5394C5.18881 11.2023 5.07264 11.8974 5.07264 12.605C5.07264 13.5978 5.30609 14.5761 5.75036 15.4552L3.75326 16.6083L2.15239 17.5325C1.34708 16.0241 0.923012 14.3281 0.923012 12.605C0.923012 6.93834 5.44785 2.30847 11.074 2.13805V6.29103C9.13802 6.38972 7.34101 7.37686 6.2187 8.974C5.95584 9.33674 6.53156 9.74089 6.78337 9.37083C7.83843 7.86939 9.56237 6.97303 11.3949 6.97303H11.4177C14.5107 6.98532 17.027 9.51185 17.027 12.6051C17.027 13.9166 16.5664 15.1936 15.7301 16.2008C15.5623 16.403 15.3787 16.5951 15.1843 16.772C14.8486 17.0686 15.3222 17.5885 15.6488 17.2824C15.7815 17.1617 15.9097 17.0345 16.0322 16.9024L19.2131 19.5715C17.7293 21.2362 15.7509 22.3871 13.5801 22.8486Z" fill="white"/>
<path d="M22.1179 6.42984L21.9869 6.50296L21.9879 6.50482L22.1179 6.42984ZM21.5201 6.77482L21.65 6.69984L21.6489 6.69795L21.5201 6.77482ZM20.5831 19.82L20.4867 19.9349L20.6054 20.0345L20.7011 19.9126L20.5831 19.82ZM19.9262 19.2687L20.0226 19.1538L20.0212 19.1526L19.9262 19.2687ZM19.9248 19.2674L20.0252 19.1558L20.0212 19.1525L19.9248 19.2674ZM18.0798 17.7194L17.9833 17.8343L17.9833 17.8343L18.0798 17.7194ZM16.4734 16.3714L16.3529 16.2821L16.2687 16.3956L16.377 16.4864L16.4734 16.3714ZM15.874 8.14297L15.9802 8.0371L15.9802 8.0371L15.874 8.14297ZM11.7643 6.29338H11.6143V6.43504L11.7557 6.44313L11.7643 6.29338ZM11.7643 0.928912L11.7689 0.778983L11.6143 0.774207V0.928912H11.7643ZM20.6333 5.45448L20.7532 5.36429L20.7519 5.36258L20.6333 5.45448ZM21.1787 5.03169L21.0602 5.1236L21.0616 5.12533L21.1787 5.03169ZM16.9413 1.5431L16.874 1.67713L16.874 1.67714L16.9413 1.5431ZM11.4198 0.233106L11.4165 0.3831L11.4195 0.383106L11.4198 0.233106ZM11.074 0.578179H11.2241L11.224 0.575205L11.074 0.578179ZM11.074 1.44799L11.0782 1.59793L11.224 1.59385V1.44799H11.074ZM3.50209 4.7123L3.60816 4.81836L3.60816 4.81836L3.50209 4.7123ZM1.7222 18.1789L1.5923 18.254L1.59337 18.2558L1.7222 18.1789ZM1.72239 18.1793L1.58008 18.2267L1.58489 18.2412L1.59249 18.2543L1.72239 18.1793ZM3.89055 20.8681L3.99145 20.7571L3.99143 20.7571L3.89055 20.8681ZM4.37803 20.8447L4.48904 20.9456L4.48904 20.9456L4.37803 20.8447ZM4.3547 20.3573L4.25382 20.4683H4.25382L4.3547 20.3573ZM2.49756 18.1302L2.42256 18.0003L2.28832 18.0778L2.37019 18.2094L2.49756 18.1302ZM5.14897 16.5994L5.07397 16.4695L5.07397 16.4695L5.14897 16.5994ZM6.09516 16.0531L6.22116 15.9717L6.14374 15.8519L6.02016 15.9232L6.09516 16.0531ZM12.1793 18.879L12.327 18.8529L12.3022 18.7118L12.1601 18.7302L12.1793 18.879ZM12.9007 22.9694L12.922 23.1179L13.0753 23.0958L13.0484 22.9433L12.9007 22.9694ZM5.58215 21.3169L5.66552 21.1922L5.66551 21.1922L5.58215 21.3169ZM5.19861 21.8907L5.28198 21.766L5.28197 21.766L5.19861 21.8907ZM13.3617 23.5942L13.3879 23.742L13.3911 23.7413L13.3617 23.5942ZM13.3624 23.5941L13.3361 23.4464L13.3329 23.447L13.3624 23.5941ZM19.7415 20.0147L19.8379 19.8998L19.7262 19.8061L19.6294 19.9151L19.7415 20.0147ZM20.4084 20.5743L20.507 20.4612L20.5048 20.4593L20.4084 20.5743ZM20.8951 20.5311L20.7799 20.4349L20.7781 20.4372L20.8951 20.5311ZM23.7669 12.6049L23.6169 12.6049V12.6049H23.7669ZM13.5801 22.8486L13.4324 22.8747L13.4594 23.0276L13.6113 22.9953L13.5801 22.8486ZM12.8586 18.7569L12.824 18.6109L12.6863 18.6435L12.7108 18.7829L12.8586 18.7569ZM14.2436 18.2507L14.1779 18.1158L14.176 18.1168L14.2436 18.2507ZM13.9322 17.6347L14.0017 17.7677L14.0019 17.7676L13.9322 17.6347ZM6.07022 10.7647L5.92918 10.7137L5.92916 10.7137L6.07022 10.7647ZM5.4179 10.5394L5.55969 10.5884L5.56037 10.5863L5.4179 10.5394ZM5.75036 15.4552L5.82536 15.5851L5.94823 15.5142L5.88424 15.3876L5.75036 15.4552ZM3.75326 16.6083L3.82826 16.7382H3.82826L3.75326 16.6083ZM2.15239 17.5325L2.02007 17.6031L2.0931 17.7399L2.22739 17.6624L2.15239 17.5325ZM11.074 2.13805H11.224V1.98344L11.0695 1.98812L11.074 2.13805ZM11.074 6.29103L11.0817 6.44083L11.224 6.43358V6.29103H11.074ZM6.2187 8.974L6.34017 9.06202L6.34142 9.06024L6.2187 8.974ZM6.78337 9.37083L6.66063 9.28458L6.65936 9.28644L6.78337 9.37083ZM11.4177 6.97303L11.4183 6.82303H11.4177V6.97303ZM15.7301 16.2008L15.6147 16.105L15.6147 16.105L15.7301 16.2008ZM15.1843 16.772L15.2836 16.8844L15.2852 16.8829L15.1843 16.772ZM15.6488 17.2824L15.5478 17.1715L15.5462 17.173L15.6488 17.2824ZM16.0322 16.9024L16.1286 16.7875L16.0193 16.6958L15.9222 16.8005L16.0322 16.9024ZM19.2131 19.5715L19.3251 19.6713L19.4279 19.5559L19.3095 19.4566L19.2131 19.5715ZM22.2488 6.35673C22.1732 6.22126 22.0571 6.1419 21.9281 6.11736C21.8035 6.09364 21.6778 6.12288 21.5761 6.18161C21.4743 6.24034 21.3862 6.33455 21.3444 6.45432C21.3011 6.57827 21.3118 6.71848 21.3913 6.85169L21.6489 6.69795C21.6137 6.63893 21.6144 6.59103 21.6276 6.55315C21.6423 6.51109 21.677 6.46977 21.7261 6.44143C21.7752 6.4131 21.8283 6.40374 21.8721 6.41207C21.9115 6.41957 21.9534 6.4429 21.9869 6.50295L22.2488 6.35673ZM21.3902 6.8498C22.3954 8.59152 22.9268 10.5816 22.9268 12.605H23.2268C23.2268 10.5293 22.6817 8.48744 21.65 6.69984L21.3902 6.8498ZM22.9268 12.605C22.9268 15.1875 22.055 17.7032 20.4652 19.7273L20.7011 19.9126C22.3324 17.8357 23.2268 15.2548 23.2268 12.605H22.9268ZM20.6796 19.7051L20.0226 19.1538L19.8298 19.3836L20.4867 19.9349L20.6796 19.7051ZM20.0212 19.1526C20.0261 19.1567 20.0297 19.1602 20.0301 19.1606C20.0302 19.1607 20.0304 19.1608 20.0302 19.1607C20.0301 19.1606 20.0298 19.1603 20.0294 19.1599C20.0287 19.1592 20.0271 19.1577 20.0251 19.1559L19.8244 19.3789C19.8227 19.3773 19.8214 19.376 19.8208 19.3755C19.8207 19.3754 19.8206 19.3753 19.8205 19.3752C19.8205 19.3752 19.8204 19.3751 19.8204 19.3751C19.8204 19.3751 19.8204 19.3751 19.8204 19.3751C19.8203 19.375 19.8206 19.3753 19.8208 19.3755C19.8217 19.3763 19.8257 19.3803 19.8312 19.3848L20.0212 19.1526ZM20.0212 19.1525L18.1762 17.6044L17.9833 17.8343L19.8284 19.3823L20.0212 19.1525ZM18.1762 17.6044L16.5698 16.2565L16.377 16.4864L17.9833 17.8343L18.1762 17.6044ZM16.5939 16.4608C17.4173 15.3503 17.8672 13.9946 17.8672 12.605H17.5672C17.5672 13.9301 17.1381 15.2232 16.3529 16.2821L16.5939 16.4608ZM17.8672 12.605C17.8672 10.8811 17.1968 9.25834 15.9802 8.0371L15.7677 8.24883C16.9283 9.41385 17.5672 10.9605 17.5672 12.605H17.8672ZM15.9802 8.0371C14.8471 6.89972 13.3639 6.23467 11.7729 6.14362L11.7557 6.44313C13.2729 6.52995 14.6866 7.16367 15.7677 8.24884L15.9802 8.0371ZM11.9143 6.29338V0.928912H11.6143V6.29338H11.9143ZM11.7597 1.07884C15.211 1.18544 18.3863 2.80071 20.5147 5.54638L20.7519 5.36258C18.5687 2.54631 15.3099 0.888352 11.7689 0.778983L11.7597 1.07884ZM20.5134 5.54466C20.6067 5.66866 20.7325 5.73158 20.8636 5.73842C20.9903 5.74503 21.1109 5.699 21.2037 5.62699C21.2966 5.55499 21.3711 5.44968 21.3963 5.32537C21.4223 5.19671 21.3928 5.05924 21.2959 4.93806L21.0616 5.12533C21.1044 5.17899 21.1102 5.22653 21.1023 5.26587C21.0934 5.30954 21.0647 5.3552 21.0199 5.38994C20.9751 5.42467 20.9237 5.44115 20.8793 5.43883C20.8392 5.43674 20.7945 5.4193 20.7532 5.3643L20.5134 5.54466ZM21.2973 4.9398C20.1541 3.46508 18.6714 2.24428 17.0086 1.40906L16.874 1.67714C18.4966 2.4922 19.9444 3.68415 21.0602 5.12359L21.2973 4.9398ZM17.0086 1.40906C15.2649 0.533089 13.3843 0.0869704 11.4201 0.0831061L11.4195 0.383106C13.3374 0.386879 15.1722 0.822216 16.874 1.67713L17.0086 1.40906ZM11.4231 0.0831415C11.1522 0.0772325 10.9187 0.310273 10.9241 0.581153L11.224 0.575205C11.222 0.474879 11.3162 0.380881 11.4165 0.38307L11.4231 0.0831415ZM10.924 0.578179V1.44799H11.224V0.578179H10.924ZM11.0698 1.29805C8.17014 1.37937 5.45546 2.54675 3.39603 4.60623L3.60816 4.81836C5.61341 2.81306 8.2552 1.6771 11.0782 1.59793L11.0698 1.29805ZM3.39603 4.60623C1.25972 6.74248 0.0829102 9.58369 0.0829102 12.605H0.38291C0.38291 9.66325 1.52812 6.89835 3.60816 4.81836L3.39603 4.60623ZM0.0829102 12.605C0.0829102 14.591 0.604751 16.5442 1.59231 18.254L1.85209 18.1039C0.891045 16.4401 0.38291 14.5386 0.38291 12.605H0.0829102ZM1.7222 18.1789C1.59337 18.2558 1.59337 18.2558 1.59337 18.2558C1.59336 18.2558 1.59336 18.2557 1.59336 18.2557C1.59335 18.2557 1.59334 18.2557 1.59334 18.2557C1.59333 18.2557 1.59332 18.2557 1.5933 18.2557C1.59328 18.2556 1.59326 18.2556 1.59323 18.2555C1.59318 18.2555 1.59314 18.2554 1.59309 18.2553C1.59299 18.2551 1.59288 18.2549 1.59277 18.2548C1.59256 18.2544 1.59232 18.254 1.59206 18.2535C1.59156 18.2527 1.59087 18.2514 1.59007 18.2499C1.58999 18.2498 1.5845 18.24 1.58008 18.2267L1.86469 18.1319C1.86023 18.1185 1.85464 18.1085 1.85448 18.1082C1.85364 18.1066 1.85291 18.1054 1.85239 18.1044C1.85212 18.104 1.85187 18.1035 1.85164 18.1031C1.85153 18.103 1.85142 18.1028 1.85132 18.1026C1.85127 18.1025 1.85122 18.1024 1.85117 18.1023C1.85115 18.1023 1.85112 18.1023 1.8511 18.1022C1.85109 18.1022 1.85108 18.1022 1.85107 18.1022C1.85106 18.1022 1.85105 18.1021 1.85105 18.1021C1.85105 18.1021 1.85104 18.1021 1.85104 18.1021C1.85103 18.1021 1.85103 18.1021 1.7222 18.1789ZM1.59249 18.2543C2.17962 19.271 2.91885 20.1878 3.78968 20.9791L3.99143 20.7571C3.14351 19.9866 2.42387 19.0941 1.85228 18.1043L1.59249 18.2543ZM3.78966 20.9791C3.99195 21.1629 4.30514 21.148 4.48904 20.9456L4.26701 20.7439C4.19455 20.8236 4.07111 20.8295 3.99145 20.7571L3.78966 20.9791ZM4.48904 20.9456C4.67288 20.7433 4.65797 20.4302 4.45558 20.2463L4.25382 20.4683C4.33357 20.5407 4.33945 20.6642 4.26701 20.7439L4.48904 20.9456ZM4.45558 20.2463C3.74478 19.6004 3.13005 18.863 2.62493 18.0509L2.37019 18.2094C2.88999 19.0451 3.52258 19.8038 4.25382 20.4683L4.45558 20.2463ZM2.57256 18.2601L5.22397 16.7293L5.07397 16.4695L2.42256 18.0003L2.57256 18.2601ZM5.22397 16.7293L6.17016 16.183L6.02016 15.9232L5.07397 16.4695L5.22397 16.7293ZM5.96916 16.1345C7.29526 18.1877 9.76254 19.3431 12.1986 19.0277L12.1601 18.7302C9.83941 19.0307 7.48486 17.9283 6.22116 15.9717L5.96916 16.1345ZM12.0316 18.905L12.7529 22.9954L13.0484 22.9433L12.327 18.8529L12.0316 18.905ZM12.8793 22.8209C12.3894 22.8913 11.8916 22.9269 11.3949 22.9269V23.2269C11.9058 23.2269 12.418 23.1903 12.922 23.1179L12.8793 22.8209ZM11.3949 22.9269C9.34388 22.9269 7.36293 22.327 5.66552 21.1922L5.49878 21.4416C7.24576 22.6096 9.28478 23.2269 11.3949 23.2269V22.9269ZM5.66551 21.1922C5.43834 21.0404 5.13079 21.1014 4.97881 21.3287L5.22821 21.4954C5.28806 21.4059 5.40932 21.3818 5.4988 21.4417L5.66551 21.1922ZM4.97881 21.3287C4.82685 21.556 4.88792 21.8634 5.11526 22.0154L5.28197 21.766C5.19239 21.7061 5.16834 21.585 5.22821 21.4954L4.97881 21.3287ZM5.11524 22.0154C6.97605 23.2594 9.14776 23.917 11.3949 23.917V23.617C9.20686 23.617 7.09322 22.9769 5.28198 21.766L5.11524 22.0154ZM11.3949 23.917C12.0632 23.917 12.7337 23.8581 13.3879 23.7419L13.3355 23.4466C12.6987 23.5596 12.0457 23.617 11.3949 23.617V23.917ZM13.3911 23.7413L13.3918 23.7412L13.3329 23.447L13.3323 23.4472L13.3911 23.7413ZM13.3886 23.7418C15.8845 23.2978 18.1666 22.0141 19.8537 20.1143L19.6294 19.9151C17.9867 21.7648 15.765 23.0143 13.3361 23.4464L13.3886 23.7418ZM19.6451 20.1296L20.312 20.6892L20.5048 20.4593L19.8379 19.8998L19.6451 20.1296ZM20.3098 20.6873C20.5143 20.8656 20.8425 20.8363 21.0121 20.625L20.7781 20.4372C20.7153 20.5155 20.583 20.5275 20.507 20.4612L20.3098 20.6873ZM21.0102 20.6272C22.8847 18.382 23.9169 15.5331 23.9169 12.6049H23.6169C23.6169 15.4629 22.6093 18.2438 20.78 20.435L21.0102 20.6272ZM23.9169 12.605C23.9169 10.4084 23.3398 8.24717 22.2478 6.35486L21.9879 6.50482C23.0535 8.35126 23.6169 10.4607 23.6169 12.6049L23.9169 12.605ZM13.7279 22.8226L13.0063 18.7308L12.7108 18.7829L13.4324 22.8747L13.7279 22.8226ZM12.8931 18.9028C13.3842 18.7865 13.8599 18.6127 14.3113 18.3845L14.176 18.1168C13.7456 18.3344 13.2921 18.5 12.824 18.6109L12.8931 18.9028ZM14.3093 18.3855C14.4488 18.3176 14.5345 18.206 14.5662 18.0786C14.5968 17.9555 14.5745 17.8283 14.5215 17.7235C14.4685 17.6186 14.3793 17.5254 14.262 17.477C14.1406 17.427 14 17.4298 13.8626 17.5019L14.0019 17.7676C14.0628 17.7357 14.1105 17.7391 14.1476 17.7544C14.1888 17.7713 14.2282 17.8083 14.2538 17.8589C14.2794 17.9095 14.2858 17.9631 14.275 18.0063C14.2654 18.0452 14.2398 18.0857 14.1779 18.1158L14.3093 18.3855ZM13.8628 17.5018C9.57531 19.7402 4.56636 15.366 6.21129 10.8157L5.92916 10.7137C4.19117 15.5215 9.47194 20.1326 14.0017 17.7677L13.8628 17.5018ZM6.21127 10.8158C6.26407 10.6699 6.24794 10.5302 6.18196 10.4167C6.11821 10.307 6.01375 10.2312 5.9027 10.1929C5.79165 10.1545 5.6627 10.1497 5.54484 10.1966C5.42288 10.2452 5.32395 10.3451 5.27542 10.4925L5.56037 10.5863C5.58187 10.521 5.61854 10.4902 5.65583 10.4753C5.69722 10.4588 5.75117 10.4579 5.80475 10.4764C5.85832 10.495 5.90021 10.5289 5.9226 10.5675C5.94276 10.6021 5.95257 10.649 5.92918 10.7137L6.21127 10.8158ZM5.27612 10.4904C5.04154 11.1693 4.92264 11.8808 4.92264 12.605H5.22264C5.22264 11.9139 5.33608 11.2354 5.55967 10.5884L5.27612 10.4904ZM4.92264 12.605C4.92264 13.6212 5.16159 14.6227 5.61649 15.5229L5.88424 15.3876C5.4506 14.5295 5.22264 13.5744 5.22264 12.605H4.92264ZM5.67536 15.3253L3.67826 16.4784L3.82826 16.7382L5.82536 15.5851L5.67536 15.3253ZM3.67826 16.4784L2.0774 17.4026L2.22739 17.6624L3.82826 16.7382L3.67826 16.4784ZM2.28472 17.4619C1.49107 15.9753 1.07301 14.3035 1.07301 12.605H0.773012C0.773012 14.3526 1.2031 16.0729 2.02007 17.6031L2.28472 17.4619ZM1.07301 12.605C1.07301 7.01969 5.53315 2.45595 11.0786 2.28798L11.0695 1.98812C5.36255 2.16098 0.773012 6.85699 0.773012 12.605H1.07301ZM10.924 2.13805V6.29103H11.224V2.13805H10.924ZM11.0664 6.14122C9.08438 6.24226 7.24488 7.25277 6.09597 8.88775L6.34142 9.06024C7.43715 7.50095 9.19166 6.53718 11.0817 6.44083L11.0664 6.14122ZM6.09723 8.88598C6.00617 9.01165 5.98309 9.15039 6.01517 9.27773C6.04617 9.40076 6.12567 9.50243 6.22182 9.56996C6.31797 9.63749 6.44057 9.67777 6.56679 9.66522C6.69743 9.65222 6.82011 9.58348 6.90739 9.45522L6.65936 9.28644C6.62074 9.34321 6.57702 9.36272 6.5371 9.36669C6.49277 9.3711 6.44065 9.35706 6.39425 9.32446C6.34785 9.29187 6.31696 9.24762 6.30608 9.20442C6.29627 9.16552 6.29979 9.11772 6.34016 9.06201L6.09723 8.88598ZM6.9061 9.45707C7.93311 7.99554 9.6113 7.12303 11.3949 7.12303V6.82303C9.51344 6.82303 7.74374 7.74325 6.66065 9.28459L6.9061 9.45707ZM11.3949 7.12303H11.4177V6.82303H11.3949V7.12303ZM11.4171 7.12303C14.4275 7.13499 16.877 9.59445 16.877 12.6051H17.177C17.177 9.42925 14.5939 6.83565 11.4183 6.82303L11.4171 7.12303ZM16.877 12.6051C16.877 13.8817 16.4286 15.1248 15.6147 16.105L15.8455 16.2967C16.7042 15.2625 17.177 13.9516 17.177 12.6051H16.877ZM15.6147 16.105C15.4514 16.3018 15.2725 16.4888 15.0833 16.6611L15.2852 16.8829C15.4848 16.7014 15.6733 16.5042 15.8455 16.2966L15.6147 16.105ZM15.0849 16.6596C14.9687 16.7624 14.9158 16.8927 14.9194 17.024C14.9228 17.1508 14.9782 17.2674 15.0573 17.3542C15.1363 17.4411 15.2472 17.5072 15.3731 17.5224C15.5034 17.5383 15.6382 17.498 15.7514 17.3919L15.5462 17.173C15.4961 17.22 15.4491 17.2295 15.4093 17.2246C15.365 17.2193 15.3173 17.1942 15.2791 17.1523C15.2409 17.1103 15.2205 17.0604 15.2193 17.0159C15.2182 16.9758 15.232 16.93 15.2836 16.8844L15.0849 16.6596ZM15.7497 17.3934C15.8856 17.2697 16.0169 17.1396 16.1422 17.0044L15.9222 16.8005C15.8026 16.9295 15.6774 17.0536 15.5478 17.1715L15.7497 17.3934ZM15.9358 17.0174L19.1167 19.6864L19.3095 19.4566L16.1286 16.7875L15.9358 17.0174ZM19.1011 19.4717C17.6384 21.1127 15.6883 22.2471 13.5489 22.7019L13.6113 22.9953C15.8135 22.5272 17.8201 21.3597 19.3251 19.6713L19.1011 19.4717Z" fill="white" mask="url(#path-1-outside-1_606_742)"/>
</g>
<defs>
<clipPath id="clip0_606_742">
<rect width="24" height="24" fill="white"/>
</clipPath>
</defs>
</svg>
